<svg xmlns="http://www.w3.org/2000/svg" x="0px" y="0px" viewBox="0 0 28 28"><path d="M6 4C4.895 4 4 4.895 4 6L4 24C4 25.105 4.895 26 6 26L24 26C25.105 26 26 25.105 26 24L26 6C26 4.895 25.105 4 24 4L6 4z M8.6484375 9L13.259766 9L15.951172 12.847656L19.28125 9L20.732422 9L16.603516 13.78125L21.654297 21L17.042969 21L14.056641 16.730469L10.369141 21L8.8945312 21L13.400391 15.794922L8.6484375 9z M10.878906 10.183594L17.632812 19.810547L19.421875 19.810547L12.666016 10.183594L10.878906 10.183594z"></path></svg>
